PathFileType	4	(X/Y/Z)	Patient4_TMGait_0pt7_01_left_48.trc.trc
DataRate	CameraRate	NumFrames	NumMarkers	Units	OrigDataRate	OrigDataStartFrame	OrigNumFrames
82.840236686390	82.840236686390	4	33	mm	82.840236686390	124	       141
Frame#	Time	Sacral			L.Shoulder			Chest			R.Shoulder			Neck			R.ASIS			L.ASIS			R.Thigh.Superior			R.Thigh.Lateral			R.Thigh.Inferior			R.Patella			L.Thigh.Superior			L.Thigh.Lateral			L.Thigh.Inferior			L.Patella			L.Shank.Superior			L.Shank.Lateral			L.Shank.Inferior			R.Shank.Superior			R.Shank.Lateral			R.Shank.Inferior			R.Heel			R.Midfoot.Superior			R.Midfoot.Lateral			R.Toe			L.Heel			L.Midfoot.Lateral			L.Midfoot.Superior			L.Toe			L.Elbow			L.Wrist			R.Elbow			R.Wrist			
		X1	Y1	Z1	X2	Y2	Z2	X3	Y3	Z3	X4	Y4	Z4	X5	Y5	Z5	X6	Y6	Z6	X7	Y7	Z7	X8	Y8	Z8	X9	Y9	Z9	X10	Y10	Z10	X11	Y11	Z11	X12	Y12	Z12	X13	Y13	Z13	X14	Y14	Z14	X15	Y15	Z15	X16	Y16	Z16	X17	Y17	Z17	X18	Y18	Z18	X19	Y19	Z19	X20	Y20	Z20	X21	Y21	Z21	X22	Y22	Z22	X23	Y23	Z23	X24	Y24	Z24	X25	Y25	Z25	X26	Y26	Z26	X27	Y27	Z27	X28	Y28	Z28	X29	Y29	Z29	X30	Y30	Z30	X31	Y31	Z31	X32	Y32	Z32	X33	Y33	Z33	

124	57.214785714286	853.382564324731	1000.413021803930	531.126861851856	1037.982685467011	1413.355174683296	330.125515630922	1155.238511471022	1333.534818330496	477.271192151493	1101.093935758340	1420.262300279475	656.838102219489	1065.519852744580	1473.265656085496	482.422946485906	1080.950279023820	924.650448977411	636.496634792235	1053.119493544799	935.604688952277	361.116845703163	1068.674333119925	711.474885515088	610.678564316498	958.235851595684	623.598333431685	672.352881612754	1013.269778521936	554.607879453078	591.784858207091	988.001497401504	470.210696545103	594.536480586850	1125.067462287484	761.112622942852	391.384068943774	1075.570097352085	631.672158139912	311.833729909657	1181.961432448103	575.584179205091	370.619548963745	1209.524373004964	512.590294346157	367.258399397232	1196.553184828300	440.208953184964	355.625548332362	1134.820717605838	307.322372517191	308.115774447775	1229.298160169182	213.064609297298	358.786269168361	944.487508969931	388.760950232186	601.938054942180	857.143576274186	299.374080164988	665.524088283289	877.781886491680	199.580248183026	599.562306800562	719.618154668611	46.456788748555	570.088519675675	892.528520299349	96.216549260295	604.393601290809	803.042609598481	37.799340217206	644.026728317982	1011.572999780782	39.830418693606	632.338429113779	1152.719047413666	37.118096580724	397.538771408893	1225.952408471995	41.605529240669	316.636518571146	1298.446361807069	114.985645554631	339.223024948627	1431.005830406624	81.554373018463	312.024653397221	854.130706346867	1116.614997530409	237.186665422141	778.289500449282	867.031876300316	240.574544005623	1247.467979530900	1123.760451497690	773.002585321334	1445.351125932815	1220.731057572498	654.591998485687	
125	57.226857142857	855.966011430719	998.995055981740	528.970810225098	1038.017156579372	1412.614332710499	327.781242889062	1155.866331380952	1333.647940290601	474.901052740304	1101.151563212166	1419.838454190994	654.560443680057	1065.321652774752	1472.702184071501	480.005205181009	1083.499760538887	923.348055807074	634.089466012115	1055.594165035102	934.815837833206	358.934913457336	1070.229040153296	709.978139351939	608.531838164862	959.045880026439	622.777572652902	670.450469544912	1013.607881566116	553.129077044124	590.156703430226	987.331523286842	468.287704317883	592.898643078365	1127.899329586498	759.451544159035	388.781984380872	1075.967426082294	629.714002476368	311.473796235427	1182.755479428689	573.695529452894	369.526011277518	1208.974832050264	509.858325705769	367.236292364237	1195.719088198241	437.269109148982	355.773788772657	1132.516780950685	305.029606381839	308.788229600809	1225.362263431447	209.866719153107	360.158783688096	942.265421352972	387.579130677981	600.669495902262	853.409579166365	300.012438679267	664.861437706214	871.944066931388	199.606586387073	599.280862445348	711.348142518274	48.312971569640	570.523167228013	884.751768171999	96.468570921781	604.567266007552	794.822415723363	38.487039294534	644.225438580689	1003.292665170257	39.374679142785	632.416197883528	1144.794070205295	37.033630889523	399.187587140882	1218.172577877132	39.723581892565	318.211635815474	1293.163448277591	110.208011425236	341.565660278649	1424.770977685783	72.301779108591	314.253453102203	853.651406301406	1116.264920390470	235.920136155427	776.504483316240	866.995793432102	239.438784396943	1248.510433771947	1123.068572059678	769.433903290639	1441.843396042111	1226.699444447134	649.739600817072	
126	57.238928571429	858.530079050879	998.003331109719	526.735976035151	1038.208577737194	1412.154319780427	325.374030646604	1156.667794624025	1333.987340839089	472.441771350409	1101.509082669865	1419.676038311346	652.221440913510	1065.362244846227	1472.437083465001	477.516064948956	1085.987544941270	922.288994681889	631.529027320541	1058.004813284666	934.454269329436	356.633888782175	1071.760856007178	708.780699135413	606.352143703955	959.931675664657	622.222735495226	668.495863078850	1014.223616710812	551.890257922388	588.580456284943	987.085175323461	466.465393804394	591.457662949922	1130.846955973669	758.529597266672	386.218190690458	1077.066777321117	628.654235236726	310.791131798296	1184.026629095944	572.616151176196	368.425879027055	1208.888138040864	507.804045601962	367.104738427075	1195.256880729966	434.915682253424	355.758639050708	1130.544975834869	303.534771268201	308.722983872208	1221.166107195602	207.145615071832	361.154393642934	940.338395729468	386.602320739180	599.532093155060	849.813638132614	301.000741735920	664.257264164153	866.294961644529	199.961277601778	599.166380303068	703.156013127764	50.765205429622	571.069198795046	877.194430487837	96.833920992843	604.897019469777	786.656923965886	39.433096339051	644.491866400214	995.038434206092	38.924459958849	632.485853959828	1136.192258526035	37.181424512500	400.127248684836	1209.874398245523	38.258711446894	319.229888072477	1287.139117782268	106.061024509322	343.497314172129	1417.913502109534	64.005397172509	316.337763588757	853.905519187180	1115.697967477241	234.552052845739	776.106133318355	866.526028855424	238.094803563370	1248.842601635191	1122.002794827643	766.083147317971	1438.130481746158	1231.229321866177	645.197196267779	
127	57.251000000000	860.996927185068	997.508808557797	524.413596243456	1038.579651364549	1412.030299897572	322.934733697203	1157.644964470140	1334.559292696543	469.911414833801	1102.207938265697	1419.805959033960	649.836086144233	1065.683630899255	1472.506190491608	474.993183732986	1088.355709143310	921.546249262612	628.815746315165	1060.299944699953	934.555501541909	354.186678023057	1073.257616207156	707.954649761021	604.139558963976	960.935417129020	621.967233000177	666.508367217094	1015.169553212705	550.949351312814	587.060202467524	987.361175060475	464.772798071365	590.283142626654	1133.816709568937	758.389618062415	383.771832276761	1078.839905037444	628.520396872874	309.752990807274	1185.678000750693	572.315069702044	367.287579204348	1209.191779896781	506.442682522945	366.782808198616	1195.099568966344	433.182700338139	355.547499647279	1128.882716480025	302.826053074784	307.965717522248	1216.789074796215	204.979708008851	361.767986120685	938.777540122670	385.862904511747	598.580859678059	846.426492961722	302.383411073449	663.736211159900	860.907341809263	200.686818105975	599.244812017435	695.094136669952	53.906427544574	571.729380840494	869.909540507398	97.322745195555	605.410883972888	778.569408409612	40.688728112012	644.831049470798	986.804457369133	38.496933294275	632.540241752776	1127.294498029642	37.467601683712	400.466697506332	1201.358157886740	37.218671091596	319.743418099180	1280.522197908206	102.739242656437	344.943587700993	1410.620450349382	57.154158292195	318.096708599297	854.891949254963	1114.996130328879	233.067855857397	777.123093489821	865.680057269471	236.535873240014	1248.453669749508	1120.611170862538	762.969935602352	1434.371139671265	1234.282146313894	640.962261455956	
